<svg xmlns="http://www.w3.org/2000/svg" xmlns:xlink="http://www.w3.org/1999/xlink" width="1690" height="1112" viewBox="0 0 1690 1112">
  <defs>
    <clipPath id="clip-Artboard_1">
      <rect width="1690" height="1112"/>
    </clipPath>
  </defs>
  <g id="Artboard_1" data-name="Artboard – 1" clip-path="url(#clip-Artboard_1)">
    <g id="undraw_confirmation_2uy0" transform="translate(160.05 535.983)">
      <path id="Path_1" data-name="Path 1" d="M1481.118,919.085q-7.349,6.461-15.026,12.554c-.861.7-1.749,1.366-2.623,2.076a527.653,527.653,0,0,1-57.373,38.754l-3.729,2.172c-.9.546-1.79,1.052-2.732,1.557-20.845,12.035-42.469,23.113-64.353,33.6l-.232.123-1.653.779q-26.474,12.69-53.739,24.288l-.437.164q-12.294,5.177-24.588,10.081c-3.347,1.366-6.707,2.636-10.068,3.934-6.325,2.418-12.663,4.795-19.056,7.076l-.792.3-1.366.478-1.708.628q-25.012,8.934-50.693,16.5l-.3.082q-17.909,5.218-36.049,9.658l-1.653.41c-17.758,4.289-35.8,7.978-53.958,10.928l-4.18.669q-19.917,3.128-40.106,5.109c-75.664,7.308-152.229,1.366-227.429-8.825-151.847-20.6-301.686-59.217-438.343-119.745q-39.341-17.417-77.153-37.292c-.2-.109-.382-.219-.587-.314q-22.635-11.9-44.655-24.793c-4.3-2.486-8.579-5.027-12.827-7.581q-7.841-4.727-15.614-9.562-10.245-6.393-20.49-13.1l-3.2-2.131-1.229-.833c-1.735-1.161-3.442-2.322-5.164-3.5-64.2-43.713-121.453-96.687-148.5-162.98-31.255-76.5-11.256-173.485,66.156-218.7,26.61-15.573,57.537-24.028,88.791-31.009l3.2-.71c5.286-1.161,10.573-2.281,15.832-3.4,18.428-3.907,36.951-7.786,55.3-12.117h0c9.562-2.254,19.029-4.617,28.441-7.172l3.852-1.065a460.48,460.48,0,0,0,66.4-23.386h.137q3.463-1.537,6.83-3.183c1.448-.683,2.9-1.366,4.344-2.117,23.222-11.557,47.811-27.58,66.73-46.677,1.516-1.53,2.992-3.087,4.426-4.644,1.106-1.216,2.2-2.445,3.251-3.675,13.264-15.463,22.444-32.634,24.192-50.857h0a65.568,65.568,0,0,0-.82-18.346c-2.145-11.461-4.221-22.676-5.751-33.618-2.855-20.559-3.825-40.216.137-59.162h0c4.03-19.316,13.168-37.907,30.613-55.939q3.948-4.1,8.51-8.2a179.332,179.332,0,0,1,47.305-29.889q3.2-1.366,6.434-2.732c47.92-19.4,105.5-23.441,159.292-20.764A868.974,868.974,0,0,1,872.364,93.762c3.893.874,7.786,1.789,11.652,2.732a1034.587,1034.587,0,0,1,122.942,38.016c104.336,39.246,202.813,93.736,294.814,153.869.9.587,1.8,1.175,2.732,1.776q5.765,3.757,11.461,7.54,11.024,7.308,21.856,14.712l4.877,3.319q3.606,2.459,7.172,4.931l7.322,5.068h0a8.021,8.021,0,0,1,.983.7l6.229,4.317c3.606,2.513,7.185,5.041,10.778,7.581h0l7.7,5.464c1.6,1.147,3.21,2.281,4.808,3.442l8.2,5.983,1.83,1.366c.382.273.765.546,1.134.847l.232.15c22.212,16.3,43.89,33.194,64.2,51.1l2.623,2.322.273.246c2.213,1.967,4.426,3.961,6.6,5.97,26.528,24.151,50.3,50.106,69.722,78.792C1631.735,626.511,1605.248,809.981,1481.118,919.085Z" transform="translate(-125.44 -568.24)" fill="#eaf6f6"/>
    </g>
  </g>
</svg>
