<svg width="59" height="66" viewBox="0 0 59 66" fill="none" xmlns="http://www.w3.org/2000/svg">
<path d="M55.6659 53.625C54.6365 53.0357 53.6378 52.0045 53.8221 50.8554C54.1755 48.6013 54.2062 47.6879 53.7914 47.0545C53.4995 46.583 52.9464 46.3179 52.4701 46.2C52.7773 45.8317 52.9464 45.4045 53.0539 44.5942C53.2536 43.121 52.3318 38.554 51.1026 34.9152C49.8734 31.2763 46.5086 27.5491 44.2346 24.8973C40.2398 20.2125 40.7315 19.1223 40.1937 10.2094C39.8557 4.5375 37.2284 0 29.5 0C21.7716 0 19.2057 4.71429 19.2057 8.69196C19.2057 12.9201 19.513 16.2054 19.513 16.2054C19.7128 21.1259 19.6667 22.0098 18.2839 24.3522C17.531 25.6339 14.1354 28.7719 12.7987 30.9375C11.462 33.1031 11.631 35.2835 9.01901 38.7161C7.1138 41.2205 6.8987 42.9 7.52865 45.1982C6.45312 46.4062 6.97552 48.1299 6.76042 48.8665C6.36094 50.1482 4.65547 50.3839 3.33411 50.4871C2.01276 50.5902 0.983333 50.4871 0.460937 51.2679C-0.0614583 52.0487 0.56849 53.625 1.12162 55.6875C1.67474 57.75 0 57.8973 0 60.2545C0 62.6116 4.60937 62.6116 9.17266 63.5987C13.7359 64.5857 15.426 66 17.7768 66C20.1276 66 21.8945 64.4973 23.6154 63.1567C24.7216 62.2875 28.0711 62.6116 30.1146 62.6116C32.1581 62.6116 35.3846 62.5232 37.1362 62.9652C38.8878 63.4071 38.8724 66 43.1745 66C47.4766 66 48.506 62.9505 52.5469 60.9469C56.5878 58.9433 59 58.0004 59 56.5714C59 55.1424 56.6953 54.2143 55.6659 53.625ZM20.8651 61.8013C20.6654 63.7165 18.9292 64.3205 17.1622 64.1732C15.1648 64.0112 12.7065 63.0536 10.3865 62.3906C8.06641 61.7277 4.93203 61.2857 2.85781 60.9321C0.507031 60.5344 2.85781 58.9286 2.82708 55.8938C2.81172 54.7152 1.7362 53.0357 2.18177 52.2549C2.62734 51.4741 4.83984 51.9013 5.60807 51.6951C6.3763 51.4888 7.55938 50.8554 7.95885 49.942C8.17396 49.4411 8.23542 47.3344 8.40443 46.583C8.57344 45.8612 9.61823 45.5223 11.8154 46.5978C14.0125 47.6732 16.2557 52.2107 18.3146 55.4076C20.3734 58.6045 21.0648 59.8862 20.8651 61.8013V61.8013ZM39.0721 52.1076C39.3794 53.625 39.5638 55.717 39.1797 57.4554C38.7956 59.1938 38.1042 59.7388 37.5357 60.8438C37.1977 59.842 38.35 58.8107 38.2117 56.3063C38.1349 54.9067 38.0888 55.1571 36.4448 56.5714C34.5703 58.1625 32.2042 59.5326 28.3016 59.8862C25.075 60.1808 23.3081 58.6634 23.3081 58.6634C24.0763 61.0205 22.6474 62.3022 22.6474 62.3022C22.6935 61.7571 22.7703 60.1955 22.2633 59.1201C21.6487 57.7942 20.8344 56.3652 20.8344 56.3652C20.8344 56.3652 22.1557 55.9674 22.6167 54.892C23.0776 53.8165 22.924 52.3433 21.2799 50.8112C19.6359 49.279 13.2135 45.2719 12.6911 44.6089C11.9383 43.6513 11.6617 43.1063 11.6156 41.1911C11.5695 39.2759 12.4453 37.5375 12.2763 38.2004C12.1534 38.6719 12.2917 39.2022 12.2917 41.1174C12.2917 43.0326 13.4594 44.55 14.4273 44.8004C15.887 45.1835 14.7346 40.9554 15.6565 36.9777C16.5784 33 17.4542 32.1455 18.6065 30.525C19.7589 28.9045 21.5565 27.5049 21.2185 24.1754C20.8805 20.846 21.2031 21.2143 22.0021 22.4371C22.6167 23.3946 24.0456 25.9728 25.7971 25.6781C28.7779 25.192 32.5422 22.054 33.1107 21.5237C33.6792 20.9933 33.2182 20.4777 32.7573 20.6692C30.3758 21.6563 25.9508 23.8366 24.8445 23.3504C23.7383 22.8643 22.0635 20.3156 22.2633 20.4777C24.6294 22.4813 25.3208 22.1129 26.3195 21.8036C27.6102 21.3911 28.2862 21.1701 30.6984 20.1388C33.1107 19.1076 33.8789 19.358 34.1247 18.8571C34.3706 18.3563 34.0633 17.8701 33.4026 18.0174C32.4193 18.2384 32.8802 18.7688 29.9148 19.8295C26.0276 21.229 24.7984 21.3469 23.1544 20.2714C21.8331 19.4022 20.8497 18.4004 20.8497 17.8112C20.8497 17.2219 22.125 16.5884 22.7396 16.1464C23.3542 15.7045 24.6294 14.5406 24.6294 14.5406C24.6294 14.5406 24.7831 13.4799 24.5372 12.6696C24.2453 11.7121 23.3388 11.2996 22.7089 11.4763C22.0789 11.6384 21.4797 12.2866 21.6641 13.6567C21.8177 14.8795 22.7396 15.2772 22.7396 15.2772C22.7396 15.2772 22.3247 15.7929 21.9406 15.9696C21.9406 15.9696 21.8177 15.9254 21.4029 15.0415C20.988 14.1576 20.3888 12.1688 21.3568 10.4598C22.3247 8.75089 24.3682 9.69375 25.0135 11.0196C25.6128 12.2424 25.3823 14.3638 25.3823 14.3638C26.3042 14.0397 27.3797 14.0692 28.6089 14.8795C27.518 10.4893 30.0685 8.82455 31.9891 8.82455C33.9096 8.82455 35.4154 10.2388 35.4154 12.5076C35.4154 14.2754 34.8776 15.1888 34.3552 15.7487C33.7253 15.675 33.0953 15.5277 33.3872 15.2478C33.587 15.0415 34.0633 14.408 34.0633 13.3031C34.0633 12.1982 33.1568 11.2848 31.9583 11.2848C30.5448 11.2848 30.0224 12.5076 29.8534 13.2C29.6844 13.8924 29.7919 14.467 29.8227 14.7321C29.9148 15.4688 31.4974 16.1464 33.4948 16.6326C35.4922 17.1187 35.231 17.9585 34.77 20.3598C34.3091 22.7612 35.738 23.0558 36.9672 25.3393C38.1964 27.6228 37.843 28.5509 39.4102 30.525C40.9773 32.4991 42.3294 37.567 41.9299 41.8393C41.7917 43.3862 41.3307 43.342 43.0516 42.8263C43.912 42.5759 44.8953 42.4286 44.8953 42.4286C45.3716 41.5004 45.4177 40.0272 45.4331 39.1433C45.4638 37.1545 45.5406 33.0295 41.3307 28.6098C41.3307 28.6098 45.8633 31.8067 46.5547 37.7438C46.9388 41.029 46.2474 42.517 46.2474 42.517C47.0617 42.7085 47.7531 43.5924 48.1833 44.2554C48.7518 45.154 47.5841 43.4009 45.1104 43.4009C43.8044 43.4009 42.7596 43.9754 42.268 44.5647C41.7763 45.154 41.7917 45.6844 41.7763 46.2884C40.6854 46.1116 39.8711 46.2884 39.1951 47.0103C38.3346 48.0415 38.7648 50.5754 39.0721 52.1076V52.1076ZM52.9156 59.0612C49.2128 60.5933 47.8914 62.5232 45.5867 63.7018C43.282 64.8804 41.3307 64.0406 40.4089 62.5232C39.487 61.0058 42.0068 58.3687 41.131 53.7429C40.4549 50.1777 40.163 49.1759 40.3781 48.3214C40.5932 47.5112 41.8224 47.6732 42.145 47.7469C42.3448 48.5424 43.1745 50.6196 46.2935 50.6196C46.2935 50.6196 49.8581 51.0027 51.3177 47.4964C51.3177 47.4964 52.1935 47.467 52.424 48.0121C52.7773 48.8665 51.9784 50.4429 51.9937 51.15C52.0398 53.4629 53.7914 54.2585 56.3573 55.8643C57.6172 56.6893 56.6799 57.4996 52.9156 59.0612Z" fill="white"/>
</svg>
