<svg width="130" height="130" viewBox="0 0 130 130" fill="none" xmlns="http://www.w3.org/2000/svg">
<path d="M32.7045 81.252C32.7045 79.0863 30.9506 77.3144 28.8068 77.3144C26.0506 77.3144 23.7955 75.0362 23.7955 72.2517L23.7955 19.9378C23.7955 17.1534 26.0506 14.8752 28.8068 14.8752L101.193 14.8752C103.949 14.8752 106.205 17.1534 106.205 19.9378L106.205 72.2517C106.205 75.0362 103.949 77.3144 101.193 77.3144C99.0494 77.3144 97.2955 79.0863 97.2955 81.252C97.2955 83.4177 99.0494 85.1896 101.193 85.1896C108.265 85.1896 114 79.3957 114 72.2517L114 19.9378C114 12.7939 108.265 7 101.193 7L28.8068 7C21.7352 7 16 12.7939 16 19.9378L16 72.2517C16 79.3957 21.7352 85.1896 28.8068 85.1896C30.9506 85.1896 32.7045 83.4177 32.7045 81.252Z" fill="#50E3C2"/>
<path d="M92.2562 98.3806C92.9801 97.6493 93.3977 96.6649 93.3977 95.5961C93.3977 94.5555 93.0079 93.5429 92.2562 92.8117C90.725 91.2648 88.275 91.2648 86.7437 92.8117L68.8699 111.15L68.8699 39.0634C68.8699 36.8977 67.1159 35.1258 64.9721 35.1258C62.8284 35.1258 61.0744 36.8977 61.0744 39.0634L61.0744 111.234L43.2284 93.3461C41.725 91.8273 39.2471 91.8273 37.7159 93.3461L37.688 93.3742C36.992 94.1336 36.6022 95.118 36.6022 96.1305C36.6022 97.1993 36.992 98.1837 37.7437 98.915L60.6846 122.147C61.8818 123.356 63.2738 123.975 64.7773 123.975C66.2528 123.975 67.6449 123.328 68.8142 122.147L92.2562 98.3806Z" fill="#50E3C2"/>
</svg>
