<svg xmlns="http://www.w3.org/2000/svg" width="930.797" height="594.104" viewBox="0 0 930.797 594.104">
  <g id="illustration_about" transform="translate(-87 -243)">
    <path id="Path_109" data-name="Path 109" d="M349.224,575.286C526.841,561.8,738.658,424.452,727.875,283.034S511.944,9.965,334.326,23.454,54.466,301.232,65.25,442.651,171.607,588.776,349.224,575.286Z" transform="translate(289.527 231.5)" fill="#f2f2f2"/>
    <g id="Group_7" data-name="Group 7" transform="translate(87 243)">
      <line id="Line_3" data-name="Line 3" x2="132.935" transform="translate(0 593.604)" fill="none" stroke="#3f3d56" stroke-miterlimit="10" stroke-width="1"/>
      <rect id="Rectangle_66" data-name="Rectangle 66" width="590.198" height="399.605" rx="19.398" transform="translate(170.579 84.08)" fill="#3f3d56"/>
      <line id="Line_4" data-name="Line 4" x2="590.198" transform="translate(176.579 115.391)" fill="none" stroke="#3f3d56" stroke-miterlimit="10" stroke-width="1"/>
      <rect id="Rectangle_67" data-name="Rectangle 67" width="160.963" height="24.825" rx="7.093" transform="translate(529.336 205.21)" fill="#6c63ff" opacity="0.3"/>
      <rect id="Rectangle_68" data-name="Rectangle 68" width="222.626" height="20.02" rx="7.093" transform="translate(498.505 274.08)" fill="#6c63ff" opacity="0.3"/>
      <rect id="Rectangle_69" data-name="Rectangle 69" width="222.626" height="20.02" rx="7.093" transform="translate(498.505 328.535)" fill="#6c63ff" opacity="0.3"/>
      <rect id="Rectangle_70" data-name="Rectangle 70" width="222.626" height="20.02" rx="7.093" transform="translate(498.505 382.991)" fill="#6c63ff" opacity="0.3"/>
      <circle id="Ellipse_35" data-name="Ellipse 35" cx="12.012" cy="12.012" r="12.012" transform="translate(209.412 89.093)" fill="#fff" opacity="0.61"/>
      <circle id="Ellipse_36" data-name="Ellipse 36" cx="12.012" cy="12.012" r="12.012" transform="translate(243.046 89.093)" fill="#00ffe5" opacity="0.4"/>
      <circle id="Ellipse_37" data-name="Ellipse 37" cx="12.012" cy="12.012" r="12.012" transform="translate(276.68 89.093)" fill="#6c63ff" opacity="0.4"/>
      <path id="Path_148" data-name="Path 148" d="M530.217,633.589a119.408,119.408,0,0,1-1.868-30.719s-10.169-44.674-18.17-48.843l0,0c-.123.158-4.006,5.248-4.5,21-.5,16-6.166,26.5-6.166,26.5s1.833,19.946.785,32.055Z" transform="translate(-167.166 -173.721)" fill="#6c63ff"/>
      <path id="Path_149" data-name="Path 149" d="M579.589,298.379H395.037A19.037,19.037,0,0,0,376,317.416V563.63a19.037,19.037,0,0,0,19.037,19.037h64.75c-2.162-8.969-4.851-22.976-2.128-32.715v-.006l0,0c.127-.455.262-.9.413-1.338a50.849,50.849,0,0,0,1.835-19.5,40.529,40.529,0,0,0,0-17c-2-9.334-3.4-18.5-3.4-18.5s-1.1-12.334-.14-19.9c.021-.166.046-.324.069-.485l-.53-.122s2.834-12.835,3.834-21c.236-1.928.547-4.373.883-6.979a16.765,16.765,0,0,1-2.717-.689c-9-3.167-11.835-31.838-11.835-31.838v-9.084s-3-13.919,7.5-20.086c10.113-5.939,14.15-7.565,14.436-7.677.077-.055.152-.105.231-.166a8.858,8.858,0,0,0,2.634-3.39q.021-.343.01-.682c-.171-3.257-2.438-6.218-4.589-8.8l-5.5-6.613a6.464,6.464,0,0,1-1.418-2.294,5.288,5.288,0,0,1-.15-1.445q0-.27,0-.539.045-2.465.134-4.929c.052-1.435.413-3.246,1.818-3.541.731-.153,1.7.114,2.085-.525a1.253,1.253,0,0,0,.094-.849c0,.021-.006.044-.012.064,0-.027-.009-.054-.014-.08a17.968,17.968,0,0,1-.521-3.513,4.679,4.679,0,0,1,.226-1.577c.814-2.383,3.618-3.36,6.1-3.81s5.259-.836,6.814-2.817a21.573,21.573,0,0,1,1.352-1.9,5.309,5.309,0,0,1,2.535-1.279,14.013,14.013,0,0,1,9.214.818c1.2.547,2.4,1.283,3.717,1.2,1.365-.086,2.532-1.048,3.88-1.281,2.177-.378,4.259,1.254,5.332,3.186a7.889,7.889,0,0,1,.987,4.023,5.535,5.535,0,0,1-1.413,3.8c-.937.994-2.335,1.677-2.724,2.987-.159.533-.122,1.107-.262,1.645-.018.067-.046.13-.069.2.026.033.054.065.079.1a17,17,0,0,1-8.274,26.442c-.006.169-.013.337-.012.507a7.346,7.346,0,0,0,2.274,5.658l14.853,6.091s8.942-1.084,12.168,12.26a23.08,23.08,0,0,1,.552,6.773,20.2,20.2,0,0,0,2.448,10.138c3.667,7.334,2.834,24.17-4.667,25.837-7.105,1.579-9.869.916-10.141.841l-.016.295c.117,3.159,1.241,30.406,5.323,33.7,1.129.912.913,1.528-.013,1.943l0,0s.008.175.025.49c.123,1.993.753,9.582,3.486,13.9,3.168,5,2.836,33.84,2.836,33.84l2.165,17s-1.333,10.5,0,12.334c.757,1.039,1.674,17.14,2.326,30.887h55.681a19.037,19.037,0,0,0,19.037-19.037V317.416a19.037,19.037,0,0,0-19.037-19.037Z" transform="translate(-142.563 -122.799)" fill="#6c63ff"/>
      <path id="Path_150" data-name="Path 150" d="M182.97,400.527s-7.467-2.208-9.068.195,2.184,19.818,2.184,19.818l16.453,1-5.742-14.5Z" transform="translate(-102.229 -142.961)" fill="#2f2e41"/>
      <path id="Path_151" data-name="Path 151" d="M110.319,579.347s14.971,32.867,3.442,31.835-16-31.835-16-31.835Z" transform="translate(-87.141 -178.765)" fill="#a0616a"/>
      <path id="Path_152" data-name="Path 152" d="M235.225,574.314s-6.568,35.514,4.369,31.721,7.819-34.762,7.819-34.762Z" transform="translate(-114.133 -177.156)" fill="#a0616a"/>
      <path id="Path_153" data-name="Path 153" d="M173.3,388.968s-.172,16.52,6.195,17.38-3.614,9.636-3.614,9.636l-11.357,2.237-16.348-1.2-7.227-9.292s12.734-6.023,7.227-24.779Z" transform="translate(-95.744 -139.644)" fill="#a0616a"/>
      <path id="Path_154" data-name="Path 154" d="M173.3,388.968s-.172,16.52,6.195,17.38-3.614,9.636-3.614,9.636l-11.357,2.237-16.348-1.2-7.227-9.292s12.734-6.023,7.227-24.779Z" transform="translate(-95.744 -139.644)" opacity="0.1"/>
      <path id="Path_155" data-name="Path 155" d="M199.5,564.942s8.088,17.38,1.721,71.929c0,0,1.893,19.273.344,22.887s-14.283,52.656-14.283,52.656-16.348,3.614-18.585-7.227c0,0,2.237-15.487,2.065-17.9s3.614-28.737,3.614-28.737l-7.744-50.936-5.851,45.945s0,13.25-1.893,16.175,0,61.776,0,61.776,5.334,8.948-2.753,9.12-15.315-.172-16-5.851-1.032-11.357-2.753-14.8-3.958-42.848-3.442-56.614-11.357-84.491-7.572-91.891S199.5,564.942,199.5,564.942Z" transform="translate(-92.69 -175.889)" fill="#2f2e41"/>
      <circle id="Ellipse_41" data-name="Ellipse 41" cx="20.649" cy="20.649" r="20.649" transform="translate(48.13 214.221)" fill="#a0616a"/>
      <path id="Path_156" data-name="Path 156" d="M141.948,412.862s12.562,9.292,30.8,1.893c0,0,6.023-2.925,5.507-7.4s12.562,35.965,12.562,35.965l13.25,70.38-.688,28.737s-5.851-2.925-24.091,3.614-48.01-7.4-48.01-7.4l1.032-73.822,1.032-43.02,2.753-9.464S137.474,409.765,141.948,412.862Z" transform="translate(-93.818 -144.437)" fill="#fff"/>
      <path id="Path_157" data-name="Path 157" d="M182.063,399.889s3.04-.494,5.965,4.152,9.809,7.571,9.809,7.571,16.692,1.032,19.1,9.981,8.432,21.166,11.357,43.708,8.776,58.507,9.636,61.432-1.2,11.873,1.2,14.627-17.036,2.753-17.036,2.753S220.379,530,219.174,530s-.86,9.464.344,16.348-8.776,0-8.776,0S203,514.861,195.6,486.467s-11.7-44.052-10.324-50.419,5.162-24.607,2.409-26.328S182.063,399.889,182.063,399.889Z" transform="translate(-103.933 -143.016)" fill="#6c63ff"/>
      <path id="Path_158" data-name="Path 158" d="M138.822,399.874s-4.5,2.447-15.853,10.534-19.1,14.283-19.1,14.283-4.474,3.442-7.227,23.919S87.692,522.088,90.1,528.8s3.27,10.669,2.409,14.627,18.068,3.786,18.412,2.925-.516-16.52.344-16.864,5.507,9.292,6.367,17.38,10.841,14.455,13.078,14.455,13.766-46.633,13.938-78.468-3.786-58.679-6.711-62.465S138.822,399.874,138.822,399.874Z" transform="translate(-85.507 -143.016)" fill="#6c63ff"/>
      <path id="Path_159" data-name="Path 159" d="M185.059,746.224s1.377-3.786,6.195-2.581,8.088-3.1,8.088-3.1,2.581-.344.86,2.925-3.1,5.507-3.1,5.507,10.325,23.575,3.614,29.253-14.455,2.237-14.455,2.237-7.572-5.334-7.227-19.445c0,0-.344-4.474-4.474-11.7s-7.227-18.24-2.237-20.305,6.275-2.142,6.275-2.142-2.335,10.681,3.7,14.413Z" transform="translate(-101.481 -208.15)" fill="#3f3d56"/>
      <path id="Path_160" data-name="Path 160" d="M147.652,782.048s-4.13-7.744,2.753-8.6,14.283-1.377,13.938,2.237-1.2,9.12-1.2,9.12l1.2,3.958s.344,9.809,1.549,11.013S173.636,811.3,159.7,811.3s-18.068-1.549-16.864-4.818,1.549-19.445,1.549-19.445Z" transform="translate(-96.08 -217.302)" fill="#3f3d56"/>
      <path id="Path_161" data-name="Path 161" d="M155.188,347.912s9.636,2.581,14.627,3.614,4.474-1.893,4.474-1.893,6.539.86,6.195.172,2.753-4.3-.86-8.432-2.581-7.227-2.581-7.227h-3.1l-.86-1.2h-4.818s-3.614-1.377-13.078,0-22.37,1.721-23.4,7.4-6.367,12.734-4.474,16,12.734,16.692,13.766,22.37,5.853,6.94,5.68,3.384-4.992-15.946-.862-16.462S157.081,354.623,155.188,347.912Z" transform="translate(-92.947 -129.561)" fill="#2f2e41"/>
      <path id="Path_162" data-name="Path 162" d="M1015.091,86.584a18.4,18.4,0,0,0-15.864,11.092c-3.967,9.589,1.141,20.852,8.808,27.844s17.517,10.989,26.465,16.242c12.02,7.056,22.821,16.851,28.835,29.425s6.654,28.149-.416,40.161c-6.562,11.149-18.493,17.822-29.872,23.976" transform="translate(-266.429 -80.612)" fill="none" stroke="#3f3d56" stroke-miterlimit="10" stroke-width="1"/>
      <ellipse id="Ellipse_42" data-name="Ellipse 42" cx="14.014" cy="6.807" rx="14.014" ry="6.807" transform="translate(744.755)" fill="#6c63ff"/>
      <ellipse id="Ellipse_43" data-name="Ellipse 43" cx="14.014" cy="6.807" rx="14.014" ry="6.807" transform="translate(755.966 44.845)" fill="#6c63ff"/>
      <ellipse id="Ellipse_44" data-name="Ellipse 44" cx="14.014" cy="6.807" rx="14.014" ry="6.807" transform="translate(730.34 52.053)" fill="#6c63ff"/>
      <ellipse id="Ellipse_45" data-name="Ellipse 45" cx="14.014" cy="6.807" rx="14.014" ry="6.807" transform="translate(770.381 89.691)" fill="#6c63ff"/>
      <ellipse id="Ellipse_46" data-name="Ellipse 46" cx="14.014" cy="6.807" rx="14.014" ry="6.807" transform="translate(798.409 89.691)" fill="#6c63ff"/>
    </g>
  </g>
</svg>
