<svg xmlns="http://www.w3.org/2000/svg" width="50" height="50" viewBox="0 0 50 50">
  <path id="logo" d="M25,76a24.746,24.746,0,0,1-11.125-2.606V53.6c0-4.48,1.1-7.937,3.262-10.275A11.61,11.61,0,0,1,26.062,39.8a11.614,11.614,0,0,1,8.925,3.524c2.165,2.339,3.263,5.8,3.263,10.275V72.2A24.931,24.931,0,0,1,25,76ZM8.625,69.891h0a25.255,25.255,0,0,1-6.292-8.334,25.065,25.065,0,0,1,0-21.111,25.255,25.255,0,0,1,6.294-8.335V69.891Zm34.8-1.993V52.626c0-5.574-1.539-9.9-4.575-12.863A15.745,15.745,0,0,0,27.45,35.3c-6.271,0-10.838,2.5-13.575,7.425V28.606A25,25,0,0,1,43.427,67.9Z" transform="translate(0 -26)"/>
</svg>
