<svg xmlns="http://www.w3.org/2000/svg" xmlns:xlink="http://www.w3.org/1999/xlink" width="50.5" height="50" viewBox="0 0 50.5 50">
  <defs>
    <clipPath id="clip-path">
      <rect id="Rectangle_22" data-name="Rectangle 22" width="50" height="50" transform="translate(1070 980)" fill="#000"/>
    </clipPath>
  </defs>
  <g id="codepen" transform="translate(-1125 -980)">
    <g id="codepen-2" data-name="codepen" transform="translate(1125.5 980)">
      <g id="Group_35" data-name="Group 35">
        <g id="Group_34" data-name="Group 34">
          <path id="Path_353" data-name="Path 353" d="M43.75,0H40.625V3.125H43.75A3.125,3.125,0,0,1,46.875,6.25v37.5a3.125,3.125,0,0,1-3.125,3.125H6.25A3.125,3.125,0,0,1,3.125,43.75V6.25A3.125,3.125,0,0,1,6.25,3.125H25V0H6.25A6.25,6.25,0,0,0,0,6.25v37.5A6.25,6.25,0,0,0,6.25,50h37.5A6.25,6.25,0,0,0,50,43.75V6.25A6.25,6.25,0,0,0,43.75,0Z" fill="#000"/>
          <rect id="Rectangle_81" data-name="Rectangle 81" width="3.125" height="3.125" transform="translate(34.375)" fill="#000"/>
          <rect id="Rectangle_82" data-name="Rectangle 82" width="3.125" height="3.125" transform="translate(28.125)" fill="#000"/>
          <path id="Path_354" data-name="Path 354" d="M80,88.1V99.17l17.188,11.17,17.188-11.17V88.1L97.188,76.928Zm3.125,3.728,2.781,1.808-2.781,1.808Zm14.063,14.789L84.43,98.322,88.773,95.5l8.414,5.467L105.6,95.5l4.344,2.823ZM91.641,93.634l5.547-3.606,5.547,3.606-5.547,3.606Zm19.609,1.808-2.781-1.808,2.781-1.808ZM105.6,91.77,97.188,86.3l-8.414,5.469L84.43,88.947l12.758-8.294,12.758,8.294Z" transform="translate(-72.188 -69.416)" fill="#000"/>
        </g>
      </g>
    </g>
  </g>
</svg>
