<svg xmlns="http://www.w3.org/2000/svg" xmlns:xlink="http://www.w3.org/1999/xlink" width="50" height="50" viewBox="0 0 50 50">
  <defs>
    <clipPath id="clip-path">
      <rect id="Rectangle_20" data-name="Rectangle 20" width="50" height="50" transform="translate(866 980)" fill="#fff"/>
    </clipPath>
  </defs>
  <g id="dribble" transform="translate(-866 -980)" clip-path="url(#clip-path)">
    <g id="dribbble" transform="translate(866 980)">
      <g id="Desktop" transform="translate(-259.502 -884.809)">
        <g id="dribbble-2" data-name="dribbble" transform="translate(259.502 884.809)">
          <path id="Fill-1" d="M46.029,24.707q-.326-.065-.814-.146l-1.189-.2q-.7-.114-1.562-.212t-1.84-.179q-.976-.082-2.083-.13T36.295,23.8q-1.138,0-2.392.065t-2.425.228a3.924,3.924,0,0,1-.244-.538q-.147-.374-.211-.569-.62-1.367-1.434-3.093a33.355,33.355,0,0,0,4.282-2.1,33.225,33.225,0,0,0,3.255-2.116,27.017,27.017,0,0,0,2.311-1.97,18.617,18.617,0,0,0,1.417-1.449q.326-.407.619-.8l.032-.033a20.88,20.88,0,0,1,4.85,13.346ZM42.97,36.539a21.332,21.332,0,0,1-6.022,6.169,91.7,91.7,0,0,0-4.167-15.267,30.761,30.761,0,0,1,13.314.944A21.062,21.062,0,0,1,42.97,36.539ZM25,46.354a20.951,20.951,0,0,1-13.607-4.882l.488.358a17.427,17.427,0,0,1,3.353-4.818A28.3,28.3,0,0,1,19.5,33.284a42.042,42.042,0,0,1,4.459-2.67q2.409-1.252,3.288-1.594t1.4-.538l.065-.032h.065a88.012,88.012,0,0,1,4.557,16.211A21.337,21.337,0,0,1,25,46.354ZM5.078,32.7A20.939,20.939,0,0,1,3.646,25a5.346,5.346,0,0,1,.032-.684,76.139,76.139,0,0,0,21.908-3.027q1.042,2.018,1.725,3.614a2.659,2.659,0,0,1-.424.146c-.2.055-.336.092-.424.114l-1.2.423a25.089,25.089,0,0,0-3.239,1.562q-2,1.108-4.248,2.637a29.12,29.12,0,0,0-4.639,4.054,27.281,27.281,0,0,0-4.02,5.419A21.376,21.376,0,0,1,5.078,32.7ZM8.269,11.751A21.063,21.063,0,0,1,15.886,5.7,112.07,112.07,0,0,1,23.829,18,77.2,77.2,0,0,1,4.1,20.6,21.1,21.1,0,0,1,8.269,11.751ZM25,3.646A20.576,20.576,0,0,1,39.1,8.984l-.407.569a14.084,14.084,0,0,1-1.22,1.319,20.956,20.956,0,0,1-2.132,1.855,28.556,28.556,0,0,1-3.142,2,30.224,30.224,0,0,1-4.232,1.97A92.836,92.836,0,0,0,19.954,4.264,21.527,21.527,0,0,1,25,3.646Zm21.648,8.805a24.887,24.887,0,0,0-9.1-9.1A24.45,24.45,0,0,0,25,0,24.451,24.451,0,0,0,12.452,3.353a24.889,24.889,0,0,0-9.1,9.1A24.452,24.452,0,0,0,0,25,24.458,24.458,0,0,0,3.353,37.549a24.893,24.893,0,0,0,9.1,9.1A24.457,24.457,0,0,0,25,50a24.459,24.459,0,0,0,12.55-3.353,24.894,24.894,0,0,0,9.1-9.1A24.463,24.463,0,0,0,50,25,24.453,24.453,0,0,0,46.648,12.451Z" fill="#000" fill-rule="evenodd"/>
        </g>
      </g>
    </g>
  </g>
</svg>
