<svg id="Bold" enable-background="new 0 0 32 32" height="512" viewBox="0 0 32 32" width="512" xmlns="http://www.w3.org/2000/svg"><path d="m26 32h-20c-3.314 0-6-2.686-6-6v-20c0-3.314 2.686-6 6-6h20c3.314 0 6 2.686 6 6v20c0 3.314-2.686 6-6 6z" fill="#e3f8fa"/><path d="m16 24c4.411 0 8-3.589 8-8s-3.589-8-8-8-8 3.589-8 8 3.589 8 8 8zm0-15c3.859 0 7 3.14 7 7 0 3.859-3.141 7-7 7-3.86 0-7-3.141-7-7 0-3.86 3.14-7 7-7z" fill="#26c6da"/><g fill="#8ce1eb"><path d="m19.828 11.381c-1.039-.863-2.373-1.381-3.828-1.381-.42 0-.83.044-1.226.126.728 1.032 1.389 2.106 1.971 3.219 1.101-.513 2.137-1.175 3.083-1.964z"/><path d="m17.911 15.901c1.328-.273 2.71-.299 4.08-.071-.04-1.43-.578-2.734-1.45-3.744-1.029.867-2.161 1.586-3.363 2.148.262.548.506 1.103.733 1.667z"/><path d="m15.812 13.723c-.601-1.141-1.282-2.241-2.042-3.291-1.801.722-3.167 2.29-3.611 4.215 1.942.083 3.864-.24 5.653-.924z"/><path d="m16.936 16.15c-.209-.514-.435-1.02-.676-1.521-1.732.675-3.582 1.043-5.463 1.043-.259 0-.519-.016-.779-.03-.007.119-.018.237-.018.358 0 1.473.533 2.821 1.414 3.865 1.441-1.789 3.378-3.071 5.522-3.715z"/><path d="m18.278 16.847c.477 1.331.851 2.698 1.125 4.091 1.352-.933 2.296-2.406 2.533-4.108-1.226-.216-2.465-.207-3.658.017z"/><path d="m12.123 20.576c1.047.887 2.398 1.424 3.877 1.424.888 0 1.729-.198 2.487-.545-.275-1.494-.675-2.956-1.191-4.375-2.017.589-3.837 1.799-5.173 3.496z"/></g></svg>