<svg xmlns="http://www.w3.org/2000/svg" xmlns:xlink="http://www.w3.org/1999/xlink" width="50" height="50" viewBox="0 0 50 50">
  <defs>
    <clipPath id="clip-path">
      <rect id="Rectangle_21" data-name="Rectangle 21" width="50" height="50" transform="translate(968 980)" fill="#000"/>
    </clipPath>
  </defs>
  <g id="github" transform="translate(-968 -980)" clip-path="url(#clip-path)">
    <path id="github-2" data-name="github" d="M25,4.167A20.833,20.833,0,1,1,4.167,25,20.857,20.857,0,0,1,25,4.167ZM25,0A25,25,0,1,0,50,25,25,25,0,0,0,25,0Zm0,12.5a12.5,12.5,0,0,0-3.95,24.36c.625.117.825-.271.825-.6V33.931c-3.477.756-4.2-1.473-4.2-1.473a3.307,3.307,0,0,0-1.388-1.829c-1.133-.777.085-.76.085-.76a2.624,2.624,0,0,1,1.917,1.29,2.662,2.662,0,0,0,3.638,1.04,2.657,2.657,0,0,1,.794-1.671c-2.777-.317-5.694-1.39-5.694-6.177A4.833,4.833,0,0,1,18.313,21a4.507,4.507,0,0,1,.121-3.312s1.05-.335,3.437,1.281a11.852,11.852,0,0,1,6.26,0c2.388-1.617,3.433-1.281,3.433-1.281a4.5,4.5,0,0,1,.125,3.308,4.822,4.822,0,0,1,1.285,3.354c0,4.8-2.925,5.858-5.708,6.167a2.98,2.98,0,0,1,.858,2.315v3.429c0,.333.2.723.833.6A12.5,12.5,0,0,0,25,12.5Z" transform="translate(968 980)" fill="#000"/>
  </g>
</svg>
