<svg xmlns="http://www.w3.org/2000/svg" xmlns:xlink="http://www.w3.org/1999/xlink" width="50" height="50" viewBox="0 0 50 50">
  <defs>
    <clipPath id="clip-path">
      <rect id="Rectangle_22" data-name="Rectangle 22" width="50" height="50" transform="translate(1070 980)" fill="#000"/>
    </clipPath>
  </defs>
  <g id="twitter" transform="translate(-1070 -980)" clip-path="url(#clip-path)">
    <g id="twitter-2" data-name="twitter" transform="translate(1070.058 979.08)">
      <path id="Path_1" data-name="Path 1" d="M49.942,10.412a20.52,20.52,0,0,1-5.9,1.617,10.284,10.284,0,0,0,4.513-5.674,20.6,20.6,0,0,1-6.516,2.486A10.263,10.263,0,0,0,24.566,18.2,29.127,29.127,0,0,1,3.421,7.478,10.28,10.28,0,0,0,6.6,21.179a10.249,10.249,0,0,1-4.649-1.286v.129a10.272,10.272,0,0,0,8.226,10.062,10.267,10.267,0,0,1-2.7.358,9.882,9.882,0,0,1-1.933-.187,10.282,10.282,0,0,0,9.582,7.127A20.564,20.564,0,0,1,2.385,41.77a20.181,20.181,0,0,1-2.443-.144,28.983,28.983,0,0,0,15.724,4.61c18.868,0,29.187-15.63,29.187-29.183,0-.444-.012-.892-.027-1.329A20.853,20.853,0,0,0,49.942,10.412Z" fill="#000"/>
    </g>
  </g>
</svg>
